HIERARCHY
ROOT SpineBase
{
  OFFSET 0.000000 0.000000 0.000000
  CHANNELS 6 Xposition Yposition Zposition Zrotation Xrotation Yrotation
  JOINT SpineMid
  {
    OFFSET 0.000000 31.864900 0.000000
    CHANNELS 3 Zrotation Xrotation Yrotation
    JOINT SpineShoulder
    {
      OFFSET 0.054911 23.622085 -0.725461
      CHANNELS 3 Zrotation Xrotation Yrotation
      JOINT Neck
      {
        OFFSET 0.051623 7.802566 -0.556672
        CHANNELS 3 Zrotation Xrotation Yrotation
        JOINT Head
        {
          OFFSET -5.194989 12.495192 1.491386
          CHANNELS 3 Zrotation Xrotation Yrotation
          End Site
          {
            OFFSET 0 0 0
          }
        }
      }
      JOINT ShoulderLeft
      {
        OFFSET -16.212909 -4.878382 8.764318
        CHANNELS 3 Zrotation Xrotation Yrotation
        JOINT ElbowLeft
        {
          OFFSET -2.715297 -27.593573 2.793473
          CHANNELS 3 Zrotation Xrotation Yrotation
          JOINT WristLeft
          {
            OFFSET 0.835702 -25.520831 -3.100223
            CHANNELS 3 Zrotation Xrotation Yrotation
            JOINT HandLeft
            {
              OFFSET 0.118952 -6.243062 -0.580888
              CHANNELS 3 Zrotation Xrotation Yrotation
              JOINT HandTipLeft
              {
                OFFSET 1.176053 -8.059221 0.601771
                CHANNELS 3 Zrotation Xrotation Yrotation
                End Site
                {
                  OFFSET 0 0 0
                }
              }
              JOINT ThumbLeft
              {
                OFFSET -1.936329 -1.645411 -2.197173
                CHANNELS 3 Zrotation Xrotation Yrotation
                End Site
                {
                  OFFSET 0 0 0
                }
              }
            }
          }
        }
      }
      JOINT ShoulderRight
      {
        OFFSET 12.979405 -3.751462 -8.417081
        CHANNELS 3 Zrotation Xrotation Yrotation
        JOINT ElbowRight
        {
          OFFSET 8.369895 -26.836576 -4.218014
          CHANNELS 3 Zrotation Xrotation Yrotation
          JOINT WristRight
          {
            OFFSET 1.766333 -21.980706 -5.635604
            CHANNELS 3 Zrotation Xrotation Yrotation
            JOINT HandRight
            {
              OFFSET -0.889176 -6.275030 -0.347615
              CHANNELS 3 Zrotation Xrotation Yrotation
              JOINT HandTipRight
              {
                OFFSET -0.284720 -8.103533 -0.066969
                CHANNELS 3 Zrotation Xrotation Yrotation
                End Site
                {
                  OFFSET 0 0 0
                }
              }
              JOINT ThumbRight
              {
                OFFSET 2.953858 -1.639831 -1.621146
                CHANNELS 3 Zrotation Xrotation Yrotation
                End Site
                {
                  OFFSET 0 0 0
                }
              }
            }
          }
        }
      }
    }
  }
  JOINT HipLeft
  {
    OFFSET -6.708283 -0.041238 -0.566276
    CHANNELS 3 Zrotation Xrotation Yrotation
    JOINT KneeLeft
    {
      OFFSET 4.255928 -34.245084 4.664116
      CHANNELS 3 Zrotation Xrotation Yrotation
      JOINT AnkleLeft
      {
        OFFSET 13.795218 -37.128837 4.964150
        CHANNELS 3 Zrotation Xrotation Yrotation
        JOINT FootLeft
        {
          OFFSET -1.403655 -7.893162 -5.458549
          CHANNELS 3 Zrotation Xrotation Yrotation
          End Site
          {
            OFFSET 0 0 0
          }
        }
      }
    }
  }
  JOINT HipRight
  {
    OFFSET 7.334558 1.505816 -6.383792
    CHANNELS 3 Zrotation Xrotation Yrotation
    JOINT KneeRight
    {
      OFFSET 7.498473 -34.377302 -11.241809
      CHANNELS 3 Zrotation Xrotation Yrotation
      JOINT AnkleRight
      {
        OFFSET 5.852464 -37.739827 5.921262
        CHANNELS 3 Zrotation Xrotation Yrotation
        JOINT FootRight
        {
          OFFSET -0.457158 -7.031019 -3.085220
          CHANNELS 3 Zrotation Xrotation Yrotation
          End Site
          {
            OFFSET 0 0 0
          }
        }
      }
    }
  }
}
MOTION
Frames: 8
Frame Time: 0.033333
-30.786097 80.361743 345.070716 -0.000000 0.000000 22.502717 -0.000000 -0.000000 -22.502717 -0.000000 0.000000 0.000000 -0.000000 0.000000 0.000000 0.000000 0.000000 0.000000 -0.000000 0.000000 0.000000 -0.000000 0.000000 0.000000 -0.000000 0.000000 0.000000 -0.000000 0.000000 0.000000 0.000000 0.000000 0.000000 0.000000 0.000000 0.000000 -0.000000 0.000000 0.000000 -0.000000 0.000000 0.000000 -0.000000 0.000000 0.000000 -0.000000 0.000000 0.000000 0.000000 0.000000 0.000000 0.000000 0.000000 0.000000 -0.000000 -0.000000 -22.502717 -0.000000 0.000000 0.000000 -0.000000 0.000000 0.000000 0.000000 0.000000 0.000000 -0.000000 -0.000000 -22.502717 -0.000000 0.000000 0.000000 -0.000000 0.000000 0.000000 0.000000 0.000000 0.000000
-30.812393 80.349898 345.037221 -0.036216 -0.024357 22.334732 0.042755 0.008767 -22.334743 -0.000000 0.000000 0.000000 -0.000000 0.000000 0.000000 0.000000 0.000000 0.000000 -0.000000 0.000000 0.000000 -0.000000 0.000000 0.000000 0.685106 -0.457377 -0.069745 -0.376058 2.585381 0.401271 0.000000 0.000000 0.000000 0.000000 0.000000 0.000000 -0.000000 0.000000 0.000000 -0.000000 0.000000 0.000000 1.025578 0.748834 -0.169783 -1.135091 0.489846 0.113375 0.000000 0.000000 0.000000 0.000000 0.000000 0.000000 0.042755 0.008767 -22.334743 -0.000000 0.000000 0.000000 -0.761091 3.569735 -0.083068 0.000000 0.000000 0.000000 0.042755 0.008767 -22.334743 -0.000000 0.000000 0.000000 -9.207725 11.801554 4.027250 0.000000 0.000000 0.000000
-30.825199 80.342213 345.008866 -0.066838 -0.038484 22.205794 0.076425 0.010370 -22.205823 -0.000000 0.000000 0.000000 -1.035830 0.217576 0.216828 0.000000 0.000000 0.000000 -0.000000 0.000000 0.000000 -0.286079 0.987333 0.069482 1.597278 -2.047706 -0.172226 -0.913777 4.950769 0.733880 0.000000 0.000000 0.000000 0.000000 0.000000 0.000000 -0.000000 0.000000 0.000000 -0.000000 0.000000 0.000000 1.992028 1.241324 -0.308422 -2.113496 0.985021 0.187239 0.000000 0.000000 0.000000 0.000000 0.000000 0.000000 0.076425 0.010370 -22.205823 -0.000000 0.000000 0.000000 -1.228601 6.146685 -0.171775 0.000000 0.000000 0.000000 0.076425 0.010370 -22.205823 -0.000000 0.000000 0.000000 -17.055534 20.829596 8.539237 0.000000 0.000000 0.000000
-30.824517 80.338690 344.985652 -0.091882 -0.042396 22.115991 0.101083 0.004685 -22.116029 -0.000000 0.000000 0.000000 -1.423086 0.273411 0.288339 0.000000 0.000000 0.000000 0.382468 0.834328 -0.046216 -0.797266 0.482495 0.132753 2.310974 -3.133065 -0.226396 -1.638336 7.052436 1.010781 0.000000 0.000000 0.000000 0.000000 0.000000 0.000000 -0.000000 0.000000 0.000000 -0.464888 0.947648 0.198833 3.372967 0.531207 -0.553797 -2.941167 1.473350 0.230573 0.000000 0.000000 0.000000 0.000000 0.000000 0.000000 0.101083 0.004685 -22.116029 -0.000000 0.000000 0.000000 -1.419964 7.804530 -0.296505 0.000000 0.000000 0.000000 0.101083 0.004685 -22.116029 -0.000000 0.000000 0.000000 -23.096836 27.245602 12.581312 0.000000 0.000000 0.000000
-30.810345 80.339327 344.967578 -0.111360 -0.036101 22.065384 0.116765 -0.008377 -22.065411 -0.000000 0.000000 0.000000 -1.723040 0.294548 0.334550 0.000000 0.000000 0.000000 0.508968 1.050778 -0.056621 -1.040725 0.480114 0.159200 2.985702 -4.270225 -0.264332 -2.569448 8.864445 1.246280 0.000000 0.000000 0.000000 0.000000 0.000000 0.000000 -0.000000 0.000000 0.000000 -0.581648 1.128483 0.245024 4.360331 0.355055 -0.631641 -3.623776 1.946313 0.249545 0.000000 0.000000 0.000000 0.000000 0.000000 0.000000 0.116765 -0.008377 -22.065411 -0.000000 0.000000 0.000000 -1.346720 8.599278 -0.473842 0.000000 0.000000 0.000000 0.116765 -0.008377 -22.065411 0.252339 0.883631 0.174828 -27.231232 31.107427 15.050127 0.000000 0.000000 0.000000
-30.782684 80.344126 344.954644 -0.125281 -0.019601 22.054011 0.123473 -0.028874 -22.054002 -0.000000 0.000000 0.000000 -1.935678 0.281321 0.355162 0.000000 0.000000 0.000000 0.635185 1.236953 -0.064383 -1.271167 0.389488 0.176311 3.632780 -5.478388 -0.288541 -3.722013 10.379405 1.455974 0.000000 0.000000 0.000000 0.000000 0.000000 0.000000 -0.000000 0.000000 0.000000 -0.678359 1.240386 0.280303 5.290291 0.013623 -0.654862 -4.166480 2.398703 0.247956 0.000000 0.000000 0.000000 0.000000 0.000000 0.000000 0.123473 -0.028874 -22.054002 -0.000000 0.000000 0.000000 -1.015122 8.559845 -0.709216 0.000000 0.000000 0.000000 0.123473 -0.028874 -22.054002 0.283694 0.939722 0.188084 -29.754396 34.474907 17.047765 0.000000 0.000000 0.000000
-30.728444 80.354582 344.942388 -0.127388 0.016642 22.113464 0.111753 -0.063372 -22.113384 -0.000000 0.000000 0.000000 -2.059352 0.205292 0.337314 0.000000 0.000000 0.000000 0.783031 1.374569 -0.065513 -1.534826 0.099289 0.177831 4.107236 -8.393011 -0.286339 -5.578666 14.478432 2.024300 0.000000 0.000000 0.000000 0.000000 0.000000 0.000000 -0.000000 0.000000 0.000000 -0.733723 1.196015 0.291262 6.709466 -1.475524 -0.434053 -4.335660 3.644553 0.120111 0.000000 0.000000 0.000000 0.000000 0.000000 0.000000 0.111753 -0.063372 -22.113384 -0.000000 0.000000 0.000000 0.363500 6.213411 -1.327978 0.000000 0.000000 0.000000 0.111753 -0.063372 -22.113384 0.301118 0.850756 0.177075 -26.870960 39.366802 15.681884 0.000000 0.000000 0.000000
-30.664749 80.368675 344.957814 -0.122261 0.046573 22.204207 0.095594 -0.089322 -22.204083 -0.000000 0.000000 0.000000 -2.053856 0.144128 0.309937 0.000000 0.000000 0.000000 0.955829 1.584044 -0.072493 -1.786885 -0.361324 0.172924 4.991107 -10.866016 -0.265569 -7.976647 15.510214 2.360646 0.000000 0.000000 0.000000 0.000000 0.000000 0.000000 -0.000000 0.000000 0.000000 -0.720111 1.048897 0.275005 8.213503 -3.174196 -0.103723 -5.328360 5.026121 -0.001024 0.000000 0.000000 0.000000 0.000000 0.000000 0.000000 0.095594 -0.089322 -22.204083 0.268879 -0.795637 -0.257344 2.602364 3.802953 -2.348201 0.000000 0.000000 0.000000 0.095594 -0.089322 -22.204083 -0.000000 0.000000 0.000000 -29.820279 40.330584 18.388370 0.000000 0.000000 0.000000
